<svg width="31" height="31" viewBox="0 0 31 31" fill="none" xmlns="http://www.w3.org/2000/svg">
<rect width="31" height="31" rx="15.5" fill="#DFE7F8"/>
<path fill-rule="evenodd" clip-rule="evenodd" d="M21.3693 18.21L21.4243 18.2675C21.6248 18.4877 21.74 18.7723 21.7493 19.07L21.7499 19.1494C21.7499 19.2431 21.7499 19.2894 21.7474 19.3287C21.7283 19.6324 21.599 19.9187 21.3838 20.1339C21.1686 20.349 20.8824 20.4783 20.5787 20.4975C20.5189 20.5 20.4591 20.5009 20.3993 20.5H10.6006C10.5068 20.5 10.4606 20.5 10.4212 20.4975C10.1175 20.4783 9.83124 20.349 9.61607 20.1339C9.4009 19.9187 9.27161 19.6324 9.25244 19.3287C9.24994 19.2894 9.24994 19.2425 9.24994 19.15L9.25056 19.0706C9.26048 18.7454 9.3968 18.4369 9.63056 18.2106L10.4393 17.375H20.5606L21.3693 18.21ZM13.4687 19.25C13.4687 19.1257 13.5181 19.0064 13.606 18.9185C13.6939 18.8306 13.8131 18.7812 13.9374 18.7812H17.0624C17.1868 18.7812 17.306 18.8306 17.3939 18.9185C17.4818 19.0064 17.5312 19.1257 17.5312 19.25C17.5312 19.3743 17.4818 19.4935 17.3939 19.5815C17.306 19.6694 17.1868 19.7187 17.0624 19.7187H13.9374C13.8131 19.7187 13.6939 19.6694 13.606 19.5815C13.5181 19.4935 13.4687 19.3743 13.4687 19.25ZM10.7206 12.375C10.7206 11.1962 10.7206 10.6075 11.0868 10.2412C11.4531 9.875 12.0418 9.875 13.2206 9.875H17.7793C18.9581 9.875 19.5474 9.875 19.9131 10.2412C20.2793 10.6075 20.2793 11.1962 20.2793 12.375V16.75H10.7206V12.375ZM15.4999 12.0625C15.6243 12.0625 15.7435 12.0131 15.8314 11.9252C15.9193 11.8373 15.9687 11.7181 15.9687 11.5937C15.9687 11.4694 15.9193 11.3502 15.8314 11.2623C15.7435 11.1744 15.6243 11.125 15.4999 11.125C15.3756 11.125 15.2564 11.1744 15.1685 11.2623C15.0806 11.3502 15.0312 11.4694 15.0312 11.5937C15.0312 11.7181 15.0806 11.8373 15.1685 11.9252C15.2564 12.0131 15.3756 12.0625 15.4999 12.0625Z" fill="#3571E4"/>
</svg>
