<svg width="31" height="31" viewBox="0 0 31 31" fill="none" xmlns="http://www.w3.org/2000/svg">
<rect width="31" height="31" rx="15.5" fill="#D0E6E8"/>
<path d="M11.125 10.0312C10.6692 10.0312 10.232 10.2123 9.90966 10.5346C9.58733 10.857 9.40625 11.2941 9.40625 11.75V17.375C9.40625 17.8308 9.58733 18.268 9.90966 18.5903C10.232 18.9126 10.6692 19.0937 11.125 19.0937H15.0312V20.0312H13.625C13.5007 20.0312 13.3815 20.0806 13.2935 20.1685C13.2056 20.2564 13.1562 20.3756 13.1562 20.5C13.1562 20.6243 13.2056 20.7435 13.2935 20.8314C13.3815 20.9193 13.5007 20.9687 13.625 20.9687H17.375C17.4993 20.9687 17.6185 20.9193 17.7065 20.8314C17.7944 20.7435 17.8437 20.6243 17.8437 20.5C17.8437 20.3756 17.7944 20.2564 17.7065 20.1685C17.6185 20.0806 17.4993 20.0312 17.375 20.0312H15.9687V19.0937H19.875C20.3308 19.0937 20.768 18.9126 21.0903 18.5903C21.4127 18.268 21.5937 17.8308 21.5937 17.375V11.75C21.5937 11.2941 21.4127 10.857 21.0903 10.5346C20.768 10.2123 20.3308 10.0312 19.875 10.0312H11.125Z" fill="#053442"/>
</svg>
