<svg width="31" height="31" viewBox="0 0 31 31" fill="none" xmlns="http://www.w3.org/2000/svg">
<rect width="31" height="31" rx="15.5" fill="#E3D3BD"/>
<path d="M20.075 9.25H10.925C10.0062 9.25 9.25 10.0062 9.25 10.925V12.5687C9.25 13.4937 10.0062 14.25 10.925 14.25H20.0687C20.9937 14.25 21.75 13.4938 21.75 12.575V10.925C21.75 10.0062 20.9937 9.25 20.075 9.25ZM12.2188 12.375C12.2188 12.6312 12.0062 12.8438 11.75 12.8438C11.4938 12.8438 11.2812 12.6312 11.2812 12.375V11.125C11.2812 10.8688 11.4938 10.6562 11.75 10.6562C12.0062 10.6562 12.2188 10.8688 12.2188 11.125V12.375ZM14.7188 12.375C14.7188 12.6312 14.5062 12.8438 14.25 12.8438C13.9938 12.8438 13.7812 12.6312 13.7812 12.375V11.125C13.7812 10.8688 13.9938 10.6562 14.25 10.6562C14.5062 10.6562 14.7188 10.8688 14.7188 11.125V12.375ZM19.25 12.2188H16.75C16.4938 12.2188 16.2812 12.0062 16.2812 11.75C16.2812 11.4938 16.4938 11.2812 16.75 11.2812H19.25C19.5062 11.2812 19.7188 11.4938 19.7188 11.75C19.7188 12.0062 19.5062 12.2188 19.25 12.2188Z" fill="#986C30"/>
<path d="M20.075 16.75H10.925C10.0062 16.75 9.25 17.5063 9.25 18.425V20.0687C9.25 20.9937 10.0062 21.75 10.925 21.75H20.0688C20.9938 21.75 21.7438 20.9937 21.7438 20.075V18.4313C21.75 17.5063 20.9938 16.75 20.075 16.75ZM12.2188 19.875C12.2188 20.1312 12.0063 20.3438 11.75 20.3438C11.4938 20.3438 11.2813 20.1312 11.2813 19.875V18.625C11.2813 18.3688 11.4938 18.1562 11.75 18.1562C12.0063 18.1562 12.2188 18.3688 12.2188 18.625V19.875ZM14.7188 19.875C14.7188 20.1312 14.5063 20.3438 14.25 20.3438C13.9938 20.3438 13.7813 20.1312 13.7813 19.875V18.625C13.7813 18.3688 13.9938 18.1562 14.25 18.1562C14.5063 18.1562 14.7188 18.3688 14.7188 18.625V19.875ZM19.25 19.7188H16.75C16.4938 19.7188 16.2813 19.5062 16.2813 19.25C16.2813 18.9938 16.4938 18.7812 16.75 18.7812H19.25C19.5063 18.7812 19.7188 18.9938 19.7188 19.25C19.7188 19.5062 19.5063 19.7188 19.25 19.7188Z" fill="#986C30"/>
</svg>
